<svg width="24" height="24" viewBox="0 0 24 24" fill="none" xmlns="http://www.w3.org/2000/svg">
  <rect width="24" height="24" rx="6" fill="#0F172A"/>
  <path d="M12 5a6.9 6.9 0 0 0-2.2 13.4c.35.06.48-.15.48-.34 0-.17-.01-.75-.01-1.36-1.76.33-2.23-.43-2.37-.83-.08-.2-.43-.83-.74-1  -.25-.13-.62-.45-.01-.46.57-.01.98.52 1.12.74.65 1.1 1.7.79 2.11.6.07-.47.25-.79.45-.97-1.55-.18-3.17-.78-3.17-3.49 0-.77.27-1.4.72-1.89-.07-.18-.32-.91.07-1.9 0 0 .59-.19 1.93.72.56-.16 1.16-.24 1.76-.24.6 0 1.2.08 1.76.24 1.35-.91 1.93-.72 1.93-.72.39.99.14 1.72.07 1.9.45.49.72 1.12.72 1.89 0 2.72-1.63 3.3-3.18 3.48.26.22.48.65.48 1.31 0 .95-.01 1.71-.01 1.94 0 .19.13.41.48.34A6.9 6.9 0 0 0 12 5Z" fill="#38BDF8"/>
</svg>
