<svg width="64" height="64" viewBox="0 0 64 64" fill="none" xmlns="http://www.w3.org/2000/svg">
  <rect width="64" height="64" rx="16" fill="#1E293B" />
  <path d="M46 46c-3-7.8-6.9-16.8-11.7-25-2.4-4.2-4.4-6-6.6-6-2.2 0-4.2 1.8-6.6 6-2.4 4.1-4.6 9-6 13.3L18.7 46l5.6-9.4c1.2-2 2-2.5 3-2.5 1 0 1.8.6 3 2.5L35.9 46l4.4-5.3c1.4-1.7 2.5-2.4 3.7-2.4 1.1 0 2.4.5 4 1.7Z" fill="url(#paint0_linear)" />
  <defs>
    <linearGradient id="paint0_linear" x1="16.5" y1="15" x2="46" y2="46" gradientUnits="userSpaceOnUse">
      <stop offset="0" stop-color="#F97316" />
      <stop offset="0.45" stop-color="#FB923C" />
      <stop offset="0.75" stop-color="#2563EB" />
      <stop offset="1" stop-color="#0EA5E9" />
    </linearGradient>
  </defs>
</svg>
