<svg xmlns="http://www.w3.org/2000/svg" width="36" height="36" viewBox="0 0 36 36" role="img" aria-label="NLP">
  <defs>
    <linearGradient id="g" x1="0" y1="0" x2="1" y2="1">
      <stop offset="0" stop-color="#8b5cf6"/>
      <stop offset="1" stop-color="#22d3ee"/>
    </linearGradient>
  </defs>
  <rect width="36" height="36" rx="8" fill="#0f172a"/>
  <path d="M18 7c5 0 9 3.6 9 8.1 0 2.7-1.5 5.1-3.9 6.6-.2.1-.3.3-.2.5l1 3.8-4-2.2c-.1 0-.3-.1-.4-.1H18c-5 0-9-3.6-9-8.1S13 7 18 7z" fill="url(#g)"/>
  <g fill="#fff" opacity=".95">
    <circle cx="13" cy="14" r="1"/>
    <circle cx="18" cy="12.5" r="1"/>
    <circle cx="22.5" cy="15" r="1"/>
    <path d="M14 14h3.5M19 13l2.8 1.6" stroke="#fff" stroke-width="1" stroke-linecap="round"/>
  </g>
</svg>
