<svg width="64" height="64" viewBox="0 0 64 64" fill="none" xmlns="http://www.w3.org/2000/svg">
  <rect width="64" height="64" rx="16" fill="#1E293B" />
  <path d="M32.2 12c-5.9 0-5.7 2.6-5.7 2.6l.01 5.5h5.8v1.6h-8.1S19 20.5 19 26.7s3.4 6.4 3.4 6.4h2v-2.9s-.1-3.4 3.3-3.4h5.4s3.2.05 3.2-3.3v-7.1S36.9 12 32.2 12Zm-3.2 4a1.6 1.6 0 1 1 0-3.2 1.6 1.6 0 0 1 0 3.2Z" fill="#3776AB" />
  <path d="M31.8 52c5.9 0 5.7-2.6 5.7-2.6l-.01-5.5H31v-1.6h8.1S45 43.5 45 37.3s-3.4-6.4-3.4-6.4h-2v2.9s.1 3.4-3.3 3.4h-5.4s-3.2-.05-3.2 3.3v7.1S27.1 52 31.8 52Zm3.2-4a1.6 1.6 0 1 1 0 3.2 1.6 1.6 0 0 1 0-3.2Z" fill="#FFD43B" />
</svg>
