<svg width="64" height="64" viewBox="0 0 64 64" fill="none" xmlns="http://www.w3.org/2000/svg">
  <rect width="64" height="64" rx="16" fill="#1E293B" />
  <path d="M29.8 46.2c13.9 0 22.6-7.2 22.6-15.7C52.4 20.5 42 14 29.8 14 17.6 14 8 20.9 8 30.4c0 9.5 9.2 15.8 21.8 15.8Z" fill="#C9D5F8" />
  <path d="M30.2 41.2c9.7 0 16.2-4.6 16.2-10.9S39.2 19.9 30.2 19.9 14.6 24.6 14.6 30.4c0 5.9 6 10.8 15.6 10.8Z" fill="#3A75B0" />
  <path d="M37.2 33h-4.7v6.8h4.7c2.6 0 3.5-1.1 3.5-3.4 0-2.2-.9-3.4-3.5-3.4Zm-8.1-10.2h9.2c6.1 0 9 3 9 7.1 0 3.3-1.5 5.4-4.9 6.4L49.6 48h-7.2L37 38.6h-2.6V48h-5.3V22.8Z" fill="#1F4F86" />
</svg>
