<svg width="32" height="32" viewBox="0 0 32 32" fill="none" xmlns="http://www.w3.org/2000/svg">
  <defs>
    <linearGradient id="skillsVizSurface" x1="6" y1="5" x2="27" y2="28" gradientUnits="userSpaceOnUse">
      <stop stop-color="#6366F1"/>
      <stop offset="1" stop-color="#38BDF8"/>
    </linearGradient>
    <linearGradient id="skillsVizStroke" x1="9" y1="8" x2="24" y2="24" gradientUnits="userSpaceOnUse">
      <stop stop-color="#E0E7FF"/>
      <stop offset="1" stop-color="#CFFAFE"/>
    </linearGradient>
  </defs>
  <rect x="3" y="3" width="26" height="26" rx="8.5" fill="url(#skillsVizSurface)" fill-opacity="0.2" stroke="url(#skillsVizStroke)" stroke-width="1.5"/>
  <path d="M10 22V15.5C10 14.6716 10.6716 14 11.5 14C12.3284 14 13 14.6716 13 15.5V22" stroke="url(#skillsVizStroke)" stroke-width="1.6" stroke-linecap="round" stroke-linejoin="round"/>
  <path d="M15 22V13C15 12.1716 15.6716 11.5 16.5 11.5C17.3284 11.5 18 12.1716 18 13V22" stroke="url(#skillsVizStroke)" stroke-width="1.6" stroke-linecap="round" stroke-linejoin="round"/>
  <path d="M20 22V9.5C20 8.67157 20.6716 8 21.5 8C22.3284 8 23 8.67157 23 9.5V22" stroke="url(#skillsVizStroke)" stroke-width="1.6" stroke-linecap="round" stroke-linejoin="round"/>
  <path d="M9 24.5H23" stroke="url(#skillsVizStroke)" stroke-width="1.5" stroke-linecap="round"/>
</svg>
